<svg id="eLRU4jkVroN1" xmlns="http://www.w3.org/2000/svg" xmlns:xlink="http://www.w3.org/1999/xlink" viewBox="0 0 1920 1080" shape-rendering="geometricPrecision" text-rendering="geometricPrecision" project-id="747414346ab5435a8332e08894fe579d" export-id="97022a18ebe84b46aeeeaf116d53e555" cached="false"><g transform="matrix(0 1-1 0 1635.000046-.005004)"><rect width="1944.037657" height="1090.230125" rx="0" ry="0" transform="matrix(0 1-1.026551 0 1103.491304-298.305393)" fill="#161616" stroke="#161616"/><path d="M1006.028385,-205.727261h-10.798978c-2.328365,0-4.214236,2.652245-4.214236,5.926804s1.885871,5.926803,4.214236,5.926803h6.584743v75.181498h-181.454442c-2.328365,0-4.214236,2.652244-4.214236,5.926803v87.035104c0,3.274558,1.885871,5.926803,4.214236,5.926803s4.214235-2.652245,4.214235-5.926803v-81.108301h115.343624v423.336731h-115.343624v-168.143405c0-3.274559-1.88587-5.926803-4.214235-5.926803s-4.214236,2.652244-4.214236,5.926803v429.263534h-57.671811c-2.328365,0-4.214236,2.652245-4.214236,5.926804v87.035104c0,3.274558,1.885871,5.926803,4.214236,5.926803h57.671811v81.108301c0,3.274558,1.885871,5.926803,4.214236,5.926803s4.214235-2.652245,4.214235-5.926803v-81.108301h119.557859c2.328365,0,4.214236-2.652245,4.214236-5.926803s-1.885871-5.926804-4.214236-5.926804h-181.454442v-75.181497h57.671812c2.328365,0,4.214236-2.652245,4.214236-5.926803v-81.108301h119.557859c2.328365,0,4.214235-2.652245,4.214235-5.926804v-87.035104c0-3.274558-1.88587-5.926803-4.214235-5.926803s-4.214236,2.652245-4.214236,5.926803v81.108301h-115.343623v-162.216602h53.457576v81.108301c0,3.274559,1.88587,5.926803,4.214235,5.926803s4.214236-2.652244,4.214236-5.926803v-81.108301h57.671812c2.328365,0,4.214235-2.652244,4.214235-5.926803v-429.278351h53.457576v684.45686h-119.557859c-2.328365,0-4.214235,2.652245-4.214235,5.926804s1.88587,5.926803,4.214235,5.926803h119.557859v336.301627h-119.557859c-2.328365,0-4.214235,2.652244-4.214235,5.926803v81.108301h-115.343624v-81.108301c0-3.274559-1.88587-5.926803-4.214235-5.926803h-123.772094c-2.328366,0-4.214236,2.652244-4.214236,5.926803v168.143405h-119.557859c-2.328365,0-4.214235,2.652244-4.214235,5.926803v81.108301h-57.671812c-2.328365,0-4.214236,2.652245-4.214236,5.926803s1.885871,5.926803,4.214236,5.926803h57.671812v162.216602h-239.126254v-168.143405c0-3.274558-1.88587-5.926803-4.214235-5.926803s-4.214236,2.652245-4.214236,5.926803v81.108301h-119.557859c-2.328365,0-4.214235,2.652245-4.214235,5.926803v174.070209c0,3.274558,1.88587,5.926803,4.214235,5.926803s4.214236-2.652245,4.214236-5.926803v-81.108301h57.671811c2.328365,0,4.214236-2.652245,4.214236-5.926804s-1.885871-5.926803-4.214236-5.926803h-57.671811v-75.181497h115.343623v168.143405c0,3.274558,1.885871,5.926803,4.214236,5.926803h185.668677c2.328365,0,4.214235-2.652245,4.214235-5.926803s-1.88587-5.926804-4.214235-5.926804h-181.454442v-75.181497h362.898348v81.108301c0,3.274558,1.88587,5.926803,4.214236,5.926803s4.214235-2.652245,4.214235-5.926803v-81.108301h177.240206v81.108301c0,3.274558,1.885871,5.926803,4.214236,5.926803s4.214235-2.652245,4.214235-5.926803v-81.108301h115.343624v81.108301c0,3.274558,1.88587,5.926803,4.214235,5.926803s4.214236-2.652245,4.214236-5.926803v-261.12013c0-3.274558-1.885871-5.926803-4.214236-5.926803h-61.886047c-2.328365,0-4.214235,2.652245-4.214235,5.926803v87.035104c0,3.274559,1.88587,5.926804,4.214235,5.926804s4.214235-2.652245,4.214235-5.926804v-81.108301h53.457577v162.216602h-177.240207v-81.108301c0-3.274558-1.88587-5.926803-4.214235-5.926803h-61.886047c-2.328365,0-4.214236,2.652245-4.214236,5.926803s1.885871,5.926804,4.214236,5.926804h57.671812v75.181497h-177.240207v-81.108301c0-3.274558-1.88587-5.926803-4.214235-5.926803s-4.214236,2.652245-4.214236,5.926803v81.108301h-53.457576v-249.266523h243.340489c2.328365,0,4.214235-2.652244,4.214235-5.926803s-1.88587-5.926803-4.214235-5.926803h-119.557859v-162.216602h115.343624v75.181498h-57.671812c-2.328365,0-4.214236,2.652244-4.214236,5.926803s1.885871,5.926803,4.214236,5.926803h247.554724c2.328365,0,4.214236-2.652244,4.214236-5.926803s-1.885871-5.926803-4.214236-5.926803h-57.671812v-75.181498h115.343624v162.216602h-181.454442c-2.328365,0-4.214235,2.652244-4.214235,5.926803v81.108301h-243.340489c-2.328365,0-4.214236,2.652245-4.214236,5.926803s1.885871,5.926803,4.214236,5.926803h57.671812v81.108301c0,3.274559,1.88587,5.926803,4.214235,5.926803s4.214235-2.652244,4.214235-5.926803v-81.108301h177.240207v81.108301c0,3.274559,1.88587,5.926803,4.214235,5.926803s4.214236-2.652244,4.214236-5.926803v-168.143405h177.240206v423.336732h-115.343624v-81.108301c0-3.274559-1.88587-5.926804-4.214235-5.926804s-4.214235,2.652245-4.214235,5.926804v81.108301h-177.240207v-75.181498h57.671812c2.328365,0,4.214235-2.652245,4.214235-5.926803s-1.88587-5.926804-4.214235-5.926804h-61.886047c-2.328365,0-4.214236,2.652245-4.214236,5.926804v81.108301h-177.240206v-75.181498h57.671812c2.328365,0,4.214235-2.652245,4.214235-5.926803s-1.88587-5.926804-4.214235-5.926804h-61.886047c-2.328366,0-4.214236,2.652245-4.214236,5.926804v81.108301h-300.99123v-81.108301c0-3.274559-1.88587-5.926804-4.214235-5.926804s-4.214235,2.652245-4.214235,5.926804v81.108301h-57.671812c-2.328365,0-4.214236,2.652244-4.214236,5.926803s1.885871,5.926803,4.214236,5.926803h866.436268c2.328365,0,4.214235-2.652245,4.214235-5.926803v-1740.731716c0-3.274559-1.88587-5.926804-4.214235-5.926804h-.010536Z" fill="#fff"/><path d="M92.373743,1535.029198h-7.459196v-423.336732h57.671811c2.328366,0,4.214236-2.652244,4.214236-5.926803s-1.88587-5.926803-4.214236-5.926803h-57.671811v-162.216602h57.671811c2.328366,0,4.214236-2.652244,4.214236-5.926803v-168.143405h57.671812c2.328365,0,4.214235-2.652244,4.214235-5.926803v-342.22843h181.454442c2.328365,0,4.214235-2.652245,4.214235-5.926804s-1.88587-5.926803-4.214235-5.926803h-181.454442v-162.216602h243.340489c2.328365,0,4.214236-2.652244,4.214236-5.926803v-168.143405h177.240206v162.216602h-57.671812c-2.328365,0-4.214235,2.652244-4.214235,5.926803s1.88587,5.926803,4.214235,5.926803h123.772095c2.328365,0,4.214235-2.652244,4.214235-5.926803s-1.88587-5.926803-4.214235-5.926803h-57.671812v-162.216602h57.671812c2.328365,0,4.214235-2.652244,4.214235-5.926803v-87.035104c0-3.274559-1.88587-5.926803-4.214235-5.926803s-4.214236,2.652244-4.214236,5.926803v81.108301h-115.343623v-168.143405c0-3.274559-1.885871-5.926803-4.214236-5.926803s-4.214235,2.652244-4.214235,5.926803v168.143405h-115.343624v-81.108301c0-3.274559-1.88587-5.926803-4.214235-5.926803h-61.886047c-2.328366,0-4.214236,2.652244-4.214236,5.926803v174.070208c0,3.274559,1.88587,5.926803,4.214236,5.926803s4.214235-2.652244,4.214235-5.926803v-168.143405h53.457576v249.266523h-177.240206v-81.108301c0-3.274559-1.88587-5.926803-4.214235-5.926803s-4.214236,2.652244-4.214236,5.926803v81.108301h-115.343624v-81.108301c0-3.274559-1.88587-5.926803-4.214235-5.926803s-4.214235,2.652244-4.214235,5.926803v87.035104c0,3.274559,1.88587,5.926803,4.214235,5.926803h57.671812v162.216602h-57.671812c-2.328365,0-4.214235,2.652245-4.214235,5.926803s1.88587,5.926804,4.214235,5.926804h57.671812v336.301627h-57.671812c-2.328365,0-4.214235,2.652244-4.214235,5.926803v168.143405h-53.457577v-423.336731h53.457577v168.143405c0,3.274558,1.88587,5.926803,4.214235,5.926803s4.214235-2.652245,4.214235-5.926803v-174.070208c0-3.274559-1.88587-5.926804-4.214235-5.926804h-57.671812v-162.216602h57.671812c2.328365,0,4.214235-2.652244,4.214235-5.926803s-1.88587-5.926803-4.214235-5.926803h-57.671812v-423.366365h57.671812c2.328365,0,4.214235-2.652245,4.214235-5.926803s-1.88587-5.926803-4.214235-5.926803h-57.671812v-75.181498h177.240207v81.108301c0,3.274558,1.88587,5.926803,4.214235,5.926803s4.214236-2.652245,4.214236-5.926803v-81.108301h239.126253v75.181498h-181.454442c-2.328365,0-4.214235,2.652244-4.214235,5.926803v168.143405h-177.240207v-75.181498h119.55786c2.328365,0,4.214235-2.652244,4.214235-5.926803s-1.88587-5.926803-4.214235-5.926803h-57.671812v-81.108301c0-3.274559-1.885871-5.926803-4.214236-5.926803s-4.214235,2.652244-4.214235,5.926803v81.108301h-57.671812c-2.328365,0-4.214235,2.652244-4.214235,5.926803v87.035104c0,3.274559,1.88587,5.926803,4.214235,5.926803h57.671812v81.108301c0,3.274559,1.88587,5.926803,4.214235,5.926803s4.214236-2.652244,4.214236-5.926803v-81.108301h115.343623v81.108301c0,3.274559,1.885871,5.926803,4.214236,5.926803s4.214235-2.652244,4.214235-5.926803v-255.193326h177.240207v81.108301c0,3.274559,1.88587,5.926803,4.214235,5.926803s4.214235-2.652244,4.214235-5.926803v-168.143405h239.126254v75.181498h-119.557859c-2.328365,0-4.214235,2.652244-4.214235,5.926803v87.035104c0,3.274559,1.88587,5.926803,4.214235,5.926803s4.214235-2.652244,4.214235-5.926803v-81.108301h115.343624v249.266523h-57.671812c-2.328365,0-4.214235,2.652244-4.214235,5.926803s1.88587,5.926803,4.214235,5.926803h57.671812v249.266523h-57.671812c-2.328365,0-4.214235,2.652245-4.214235,5.926803s1.88587,5.926804,4.214235,5.926804h57.671812v75.181497h-57.671812c-2.328365,0-4.214235,2.652245-4.214235,5.926803v168.143406h-115.343624v-81.108301c0-3.274559-1.88587-5.926804-4.214235-5.926804s-4.214236,2.652245-4.214236,5.926804v87.035104c0,3.274558,1.885871,5.926803,4.214236,5.926803h57.671812v81.108301c0,3.274559,1.88587,5.926803,4.214235,5.926803s4.214235-2.652244,4.214235-5.926803v-81.108301h53.457577v81.108301c0,3.274559,1.88587,5.926803,4.214235,5.926803h57.671812v75.181498h-181.454442c-2.328365,0-4.214235,2.652244-4.214235,5.926803v168.143405h-177.240207v-249.266523h57.671812c2.328365,0,4.214236-2.652244,4.214236-5.926803v-174.070208c0-3.274559-1.885871-5.926804-4.214236-5.926804h-61.886047c-2.328365,0-4.214235,2.652245-4.214235,5.926804s1.88587,5.926803,4.214235,5.926803h57.671812v162.216602h-119.557859c-2.328365,0-4.214236,2.652244-4.214236,5.926803v261.120129c0,3.274559,1.885871,5.926803,4.214236,5.926803s4.214235-2.652244,4.214235-5.926803v-255.193326h53.457577v255.193326c0,3.274559,1.88587,5.926803,4.214235,5.926803h57.671812v75.181498h-57.671812c-2.328365,0-4.214235,2.652244-4.214235,5.926803v168.143405h-53.457577v-168.143405c0-3.274559-1.88587-5.926803-4.214235-5.926803h-119.557859v-249.266523h53.457576v168.143405c0,3.274559,1.88587,5.926803,4.214236,5.926803s4.214235-2.652244,4.214235-5.926803v-516.298638h53.457576v168.143405c0,3.274558,1.885871,5.926803,4.214236,5.926803h61.886047c2.328365,0,4.214235-2.652245,4.214235-5.926803s-1.88587-5.926803-4.214235-5.926803h-57.671812v-162.216602h119.557859c2.328365,0,4.214236-2.652245,4.214236-5.926804v-81.1083h119.557859c2.328365,0,4.214235-2.652245,4.214235-5.926804s-1.88587-5.926803-4.214235-5.926803h-119.557859v-75.181498h177.240206v162.216602h-119.557859c-2.328365,0-4.214235,2.652245-4.214235,5.926803v429.263535h-53.457577v-81.108301c0-3.274559-1.88587-5.926803-4.214235-5.926803s-4.214236,2.652244-4.214236,5.926803v87.035104c0,3.274559,1.885871,5.926803,4.214236,5.926803h61.886047c2.328365,0,4.214235-2.652244,4.214235-5.926803v-168.143405h57.671812c2.328365,0,4.214236-2.652244,4.214236-5.926803s-1.885871-5.926803-4.214236-5.926803h-57.671812v-249.266523h115.343624v81.108301c0,3.274558,1.88587,5.926803,4.214235,5.926803s4.214236-2.652245,4.214236-5.926803v-255.193327h57.671812c2.328365,0,4.214235-2.652244,4.214235-5.926803s-1.88587-5.926803-4.214235-5.926803h-181.454442v-162.216602h57.671812c2.328365,0,4.214235-2.652244,4.214235-5.926803s-1.88587-5.926803-4.214235-5.926803h-61.886048c-2.328365,0-4.214235,2.652244-4.214235,5.926803v168.143405h-243.340489c-2.328365,0-4.214236,2.652245-4.214236,5.926803s1.885871,5.926803,4.214236,5.926803h181.454442v162.216602h-181.454442c-2.328365,0-4.214236,2.652245-4.214236,5.926803v342.228431h-57.671811c-2.328365,0-4.214236,2.652244-4.214236,5.926803v168.143405h-57.671812c-2.328365,0-4.214235,2.652244-4.214235,5.926803s1.88587,5.926803,4.214235,5.926803h57.671812v162.216602h-57.671812c-2.328365,0-4.214235,2.652245-4.214235,5.926803s1.88587,5.926803,4.214235,5.926803h61.886048c2.328365,0,4.214235-2.652244,4.214235-5.926803v-81.108301h115.343624v168.143405c0,3.274559,1.88587,5.926804,4.214235,5.926804h123.772095c2.328365,0,4.214235-2.652245,4.214235-5.926804s-1.88587-5.926803-4.214235-5.926803h-57.671812v-162.216602h57.671812c2.328365,0,4.214235-2.652244,4.214235-5.926803v-81.108301h119.557859c2.328365,0,4.214235-2.652244,4.214235-5.926803v-168.143405h239.126254v81.108301c0,3.274559,1.88587,5.926803,4.214236,5.926803s4.214235-2.652244,4.214235-5.926803v-81.108301h57.671812c2.328365,0,4.214235-2.652244,4.214235-5.926803v-81.108301h53.457577v81.108301c0,3.274559,1.88587,5.926803,4.214235,5.926803s4.214235-2.652244,4.214235-5.926803v-87.035104c0-3.274559-1.88587-5.926803-4.214235-5.926803h-61.886047c-2.328365,0-4.214236,2.652244-4.214236,5.926803v81.108301h-115.343623v-81.108301c0-3.274559-1.885871-5.926803-4.214236-5.926803h-57.671812v-249.266523h57.671812c2.328365,0,4.214236-2.652245,4.214236-5.926804v-429.263534h115.343623v168.143405c0,3.274559,1.885871,5.926803,4.214236,5.926803s4.214235-2.652244,4.214235-5.926803v-261.120129c0-3.274559-1.88587-5.926803-4.214235-5.926803s-4.214236,2.652244-4.214236,5.926803v81.108301h-115.343623v-249.192438h189.008459c2.328365,0,4.214235-2.652245,4.214235-5.926803s-1.88587-5.926803-4.214235-5.926803h-873.97975c-2.328365,0-4.214235,2.652244-4.214235,5.926803v1740.76135c0,3.274559,1.88587,5.926803,4.214235,5.926803h11.673432c2.328365,0,4.214236-2.652244,4.214236-5.926803s-1.885871-5.926803-4.214236-5.926803Z" fill="#fff"/></g><path d="M37.26959,1355.495143c-2.330117,0-4.217406-2.65844-4.217406-5.940649v-267.670798h123.865224v-87.238432h70.367425v174.476865h177.373567v-75.357135h-61.932612v-99.11973h61.932612v-87.238432h123.865224v-174.476865h194.243192v87.238432h53.4978v-87.238432h123.865224v-162.595566h-115.430412v87.238432h-70.367424v-87.238432h-61.932612v-186.358163h61.932612v-436.207013h70.367424v174.476864h53.4978v-337.087282h-53.4978v87.238432h-70.367424v-186.358163h190.025786c2.330117,0,4.217406,2.65844,4.217406,5.940649s-1.887289,5.940649-4.217406,5.940649h-181.590974v162.595567h53.4978v-87.238433h70.367424v360.849879h-70.367424v-174.476864h-53.4978v436.207013h-61.932612v162.595566h61.932612v87.238433h53.4978v-87.238433h132.300037v186.358163h-123.865225v87.238433h-70.367424v-87.238433h-177.373567v174.476865h-123.865224v87.238432h-61.932613v75.357134h61.932613v99.119731h-194.243193v-174.476865h-53.497799v87.238432h-123.865224v255.7895c0,3.282209-1.88729,5.940649-4.217407,5.940649Z" transform="matrix(0 1-1 0 1486.407277 73.642377)" fill="#ff0013"/></svg>
